<svg width="28" height="28" viewBox="0 0 28 28" fill="none" xmlns="http://www.w3.org/2000/svg">
<circle cx="14" cy="14" r="12.5" fill="#FF8144" stroke="#862C00" stroke-width="3"/>
<path fill-rule="evenodd" clip-rule="evenodd" d="M18.3272 20.8723H9.67269C9.80468 18.6009 11.6916 16.7996 14 16.7996C16.3083 16.7996 18.1952 18.6009 18.3272 20.8723Z" fill="#902F00"/>
<mask id="mask0_1_244" style="mask-type:alpha" maskUnits="userSpaceOnUse" x="9" y="16" width="10" height="5">
<path fill-rule="evenodd" clip-rule="evenodd" d="M18.3272 20.8723H9.67269C9.80468 18.6009 11.6916 16.7996 14 16.7996C16.3083 16.7996 18.1952 18.6009 18.3272 20.8723Z" fill="#902F00"/>
</mask>
<g mask="url(#mask0_1_244)">
<rect x="10.6911" y="16.7996" width="6.61818" height="1.52727" fill="white"/>
<circle cx="14.0002" cy="21.6365" r="2.29091" fill="#511B00"/>
</g>
<path d="M10.2706 13.2145L7.72752 11.7613C7.30637 11.5207 6.90046 12.0966 7.26874 12.4123L8.38686 13.3707C8.81296 13.7359 8.85514 14.3802 8.48032 14.7979L7.71903 15.6462C7.40831 15.9924 7.83915 16.5006 8.23157 16.2507L10.3116 14.9263C10.9464 14.5221 10.9241 13.5879 10.2706 13.2145Z" fill="#902F00"/>
<path d="M17.7294 13.2145L20.2725 11.7613C20.6936 11.5207 21.0995 12.0966 20.7313 12.4123L19.6131 13.3707C19.187 13.7359 19.1449 14.3802 19.5197 14.7979L20.281 15.6462C20.5917 15.9924 20.1609 16.5006 19.7684 16.2507L17.6884 14.9263C17.0536 14.5221 17.0759 13.5879 17.7294 13.2145Z" fill="#902F00"/>
<path d="M12.2181 6.61795C11.9212 7.46644 10.7927 9.1634 8.65449 9.1634" stroke="#DC5512" stroke-width="2" stroke-linecap="round" stroke-linejoin="round"/>
<path d="M15.7819 6.61795C16.0788 7.46644 17.2073 9.1634 19.3455 9.1634" stroke="#DC5512" stroke-width="2" stroke-linecap="round" stroke-linejoin="round"/>
</svg>
